# xmcd
#
# Track frame offsets: 
#        150
#        22496
#        45004
#        61471
#        83526
#        103032
#        125426
#        143859
#        163824
#        184680
#        203771
#
# Disc length: 2862 seconds
#
# Revision: 1
# Processed by: cddbd v1.5.2PL0 Copyright (c) Steve Scherf et al.
# Submitted via: ExactAudioCopyFreeDBPlugin 1.0
#
DISCID=920b2c0b
DTITLE=老狼 - 晴朗
DYEAR=2002
DGENRE=Blues
TTITLE0=虎口脱险
TTITLE1=晴朗
TTITLE2=麦克
TTITLE3=关于现在关于未来
TTITLE4=给S
TTITLE5=百分之百女孩
TTITLE6=郎心似铁
TTITLE7=喜悦
TTITLE8=歌
TTITLE9=未知的旅程
TTITLE10=月光倾城
EXTD=
EXTT0=
EXTT1=
EXTT2=
EXTT3=
EXTT4=
EXTT5=
EXTT6=
EXTT7=
EXTT8=
EXTT9=
EXTT10=
PLAYORDER=
